<svg xmlns="http://www.w3.org/2000/svg" width="74" height="14.5186" viewBox="0 0 74 14.5186"><defs><style>.a,.d{fill:#111987;}.b,.c{fill:#ff8000;}.c,.d{fill-rule:evenodd;}</style></defs><title>ricardo</title><path class="a" d="M58.91,10.1781a.2367.2367,0,0,1,.2347-.236h1.1081a.237.237,0,0,1,.2362.236V11.3a.2362.2362,0,0,1-.2362.2358H59.1452A.2359.2359,0,0,1,58.91,11.3V10.1781Z"/><path class="b" d="M30.8516,3.9a.2386.2386,0,0,0-.2382-.2375H28.9516c-1.96,0-3.401,1.62-3.401,3.8968,0,2.3978,1.4538,3.971,3.406,3.971h1.6567a.2393.2393,0,0,0,.2382-.2377V10.2286a.2412.2412,0,0,0-.2382-.24s-.6043-.0032-1.1728-.0032c-1.4145,0-2.0084-.9945-2.0084-2.4791,0-1.4819.7441-2.33,1.985-2.33h1.1962a.2385.2385,0,0,0,.2382-.2377V3.9Z"/><path class="c" d="M53.1649,7.3006c0,1.5164.39,2.7686,1.7547,2.7686,1.2812,0,1.706-1.4053,1.706-2.7134,0-1.2029-.44-2.4324-1.706-2.4324-1.1633,0-1.7547,1.2049-1.7547,2.3772Zm-1.7826.2556c0-2.5876,1.3732-4.1513,3.6044-4.1513,2.15,0,3.4428,1.6244,3.4428,4.2119,0,2.2516-1.2548,3.9789-3.5422,3.9789-2.3789,0-3.5049-1.788-3.5049-4.04Z"/><path class="b" d="M22.7773,2.8181a.2383.2383,0,0,0,.2372.2377h1.3265a.2381.2381,0,0,0,.2377-.2377v-1.32a.2382.2382,0,0,0-.2377-.2377H23.0146a.2384.2384,0,0,0-.2372.2377v1.32Z"/><path class="b" d="M22.7773,11.2922a.2391.2391,0,0,0,.2372.2377h1.3265a.2389.2389,0,0,0,.2377-.2377V3.9a.2382.2382,0,0,0-.2377-.2375H23.0146a.2384.2384,0,0,0-.2372.2375v7.3926Z"/><path class="b" d="M19.8041,3.9008a.24.24,0,0,0-.2395-.2383H18.2163a.2391.2391,0,0,0-.2385.2383v7.3913a.2389.2389,0,0,0,.2385.2377h1.3506a.2393.2393,0,0,0,.2382-.2377L19.81,8.6094c0-1.13-.1828-2.9554,1.2454-3.3388a2.5472,2.5472,0,0,1,.5329-.0967.2447.2447,0,0,0,.2383-.2425V3.9446a.284.284,0,0,0-.2353-.2726,2.2681,2.2681,0,0,0-.2656-.01,2.0432,2.0432,0,0,0-1.2837.4593l-.084.0773c-.0535.05-.1532.0656-.1532-.0393s-.001-.2586-.001-.2586Z"/><path class="b" d="M40.9018,3.9008a.2393.2393,0,0,0-.2377-.2383H39.3147a.2388.2388,0,0,0-.2383.2383v7.3913a.2385.2385,0,0,0,.2383.2377h1.35a.239.239,0,0,0,.2382-.2377l.0055-2.6828c0-1.13-.1562-2.9568,1.2459-3.3388a2.3862,2.3862,0,0,1,.5337-.0967.2447.2447,0,0,0,.2383-.2425V3.9446A.2854.2854,0,0,0,42.69,3.672a2.23,2.23,0,0,0-.2651-.01,2.0377,2.0377,0,0,0-1.2827.4593l-.0846.0773c-.0532.05-.1542.0656-.1542-.0393s-.0015-.2586-.0015-.2586Z"/><path class="c" d="M33.2732,9.1958c0,.6722.4576.8851,1.1753.8851a1.5812,1.5812,0,0,0,1.3051-.7848V7.9432a.2256.2256,0,0,0-.0851-.1937.4378.4378,0,0,0-.2223-.0724h-.2029c-.8968,0-1.97.5491-1.97,1.5187Zm2.5943,1.78a3.0383,3.0383,0,0,1-1.8542.609,2.419,2.419,0,0,1-2.5375-2.4363A3.1979,3.1979,0,0,1,34.7151,6.281l.751-.0132.1238-.002a.1145.1145,0,0,0,.1189-.1142,1.0518,1.0518,0,0,0-.0169-.2047.9569.9569,0,0,0-.91-.7677H32.566a.2387.2387,0,0,1-.2372-.239V3.91a.2376.2376,0,0,1,.2372-.2377h2.1854l.3059-.001c1.5408,0,2.4938.8933,2.4938,3.1269V9.3617c0,.7262.469.7366.469.7366a.2448.2448,0,0,1,.2368.2437v.96a.2637.2637,0,0,1-.2358.2581,3.36,3.36,0,0,1-.9062-.0552,2.0577,2.0577,0,0,1-.8838-.4536A1.1231,1.1231,0,0,1,36.09,10.9a.0725.0725,0,0,0-.1109-.0154c-.0244.02-.01.0124-.1114.0915Z"/><path class="b" d="M44.9245,7.4588c0,1.0855.2885,2.5992,1.6751,2.5992,1.6249,0,1.8706-1.4841,1.8706-2.6,0-1.1-.2561-2.4955-1.71-2.4955-1.4016,0-1.8358,1.4416-1.8358,2.496ZM48.43,3.8193V1.4772a.2381.2381,0,0,1,.2377-.2372h1.3508a.2382.2382,0,0,1,.2367.2372v7.888c0,.7261.471.7358.471.7358a.2464.2464,0,0,1,.2382.2435v.9609a.2666.2666,0,0,1-.2382.2591,3.3877,3.3877,0,0,1-.9052-.0552,2.0563,2.0563,0,0,1-.8838-.4551,1.1487,1.1487,0,0,1-.1413-.1517.13.13,0,0,0-.1567-.01,4.431,4.431,0,0,1-2.14.6789c-2.2163,0-3.39-1.8989-3.39-4.0525,0-2.1695,1.225-4.08,3.3671-4.08a2.7479,2.7479,0,0,1,1.6647.4166.4867.4867,0,0,0,.1925.07c.0955.002.0955-.1054.0955-.1054Z"/><path class="a" d="M66.0158,3.6168H64.367c-1.9741.003-3.42,1.6363-3.4244,3.9173.004,2.4,1.4618,3.9874,3.4308,3.9916h1.6423a.2881.2881,0,0,0,.288-.2867V10.1833a.2908.2908,0,0,0-.287-.2882s-.5988-.0032-1.1628-.0032c-1.3737-.0047-1.9362-.946-1.9432-2.41.006-1.4548.7142-2.2573,1.9188-2.2623h1.1862a.2875.2875,0,0,0,.288-.2855v-1.03A.2878.2878,0,0,0,66.0158,3.6168Z"/><path class="a" d="M73.997,6.2889a2.3616,2.3616,0,0,0-2.5017-2.6318,2.8418,2.8418,0,0,0-2.1536.9047c-.0418.0472-.0428.0472-.0642.0689V1.4879a.2871.2871,0,0,0-.286-.2865H67.675a.2877.2877,0,0,0-.2875.2865V11.239a.2881.2881,0,0,0,.2875.2867h1.3165a.2875.2875,0,0,0,.286-.2867V6.8671c.095-.811.4641-1.7472,1.5732-1.7472.9967.004,1.2061.664,1.2593,1.3792V11.25a.2875.2875,0,0,0,.287.286h1.316A.2866.2866,0,0,0,74,11.25V6.3088A.0693.0693,0,0,0,73.997,6.2889Z"/><path class="b" d="M11.6886,14.3833a.1364.1364,0,0,1-.1363.1353H2.3662A2.3536,2.3536,0,0,1,0,12.177V3.091a.1361.1361,0,0,1,.1353-.1359H.7179a.1364.1364,0,0,1,.1358.1359v9.0564A1.4315,1.4315,0,0,0,2.3948,13.63h9.1575a.1364.1364,0,0,1,.1363.1358Z"/><path class="b" d="M13.7812,11.5742a.1355.1355,0,0,1-.1348-.1355l-.0057-9.067A1.4224,1.4224,0,0,0,12.1235.8781L2.9685.8842A.1359.1359,0,0,1,2.833.7485V.1358A.1358.1358,0,0,1,2.9685,0h9.1836a2.3552,2.3552,0,0,1,2.3664,2.3443v9.0943a.1363.1363,0,0,1-.1363.1355Z"/><path class="d" d="M2.8465,6.805h.5112V7.85H2.8465V6.805ZM4.8927,3.6589h.5124V7.8472H4.8927V3.6589ZM3.3577,6.805V6.2922H4.3812V6.805Zm1.0235.5118V6.805h.5125v.5118ZM3.3577,8.3622V7.85H3.87v.512ZM4.3825,9.9269v-.513h.5118v.513Zm.5118.5118V9.9269h.5125v.5118Zm.5125,0h.5124v1.1355H5.4069V10.4387ZM3.87,8.3622h.5124V9.4139H3.87V8.3622Zm6.1411.57h.5123V9.9727h-.5123V8.9319ZM9.499,9.9727h.5122v1.6015H9.499V9.9727ZM10.5235,7.33h.5125V8.9319h-.5125V7.33ZM6.9472,3.1462V2.6341H7.9685v.5122Zm2.5519.5127h.5122v.9238H11.036v.5129H10.0112V6.8132H9.499V3.6589ZM8.4807,3.6584V6.2847H7.9685V3.1462H9.499v.5122ZM6.9472,3.1462V6.2847h-.512V3.6584l-1.03.0005-.0005-.5127ZM11.036,5.0951h.5122V7.33H11.036V5.0951Z"/></svg>